<svg width="332" height="332" viewBox="0 0 332 332" fill="none" xmlns="http://www.w3.org/2000/svg">
<g clip-path="url(#clip0_2828_164)">
<rect width="332" height="332" rx="25" fill="white"/>
<path fill-rule="evenodd" clip-rule="evenodd" d="M25.2891 45.4222C25.2891 40.0825 27.4102 34.9616 31.1859 31.1859C34.9616 27.4102 40.0825 25.2891 45.4222 25.2891H105.821C111.161 25.2891 116.282 27.4102 120.058 31.1859C123.833 34.9616 125.955 40.0825 125.955 45.4222V105.821C125.955 111.161 123.833 116.282 120.058 120.058C116.282 123.833 111.161 125.955 105.821 125.955H45.4222C40.0825 125.955 34.9616 123.833 31.1859 120.058C27.4102 116.282 25.2891 111.161 25.2891 105.821V45.4222ZM65.5552 85.6883V65.5552H85.6883V85.6883H65.5552ZM25.2891 226.62C25.2891 221.28 27.4102 216.159 31.1859 212.384C34.9616 208.608 40.0825 206.487 45.4222 206.487H105.821C111.161 206.487 116.282 208.608 120.058 212.384C123.833 216.159 125.955 221.28 125.955 226.62V287.019C125.955 292.359 123.833 297.48 120.058 301.255C116.282 305.031 111.161 307.152 105.821 307.152H45.4222C40.0825 307.152 34.9616 305.031 31.1859 301.255C27.4102 297.48 25.2891 292.359 25.2891 287.019V226.62ZM65.5552 266.886V246.753H85.6883V266.886H65.5552ZM226.62 25.2891C221.28 25.2891 216.159 27.4102 212.384 31.1859C208.608 34.9616 206.487 40.0825 206.487 45.4222V105.821C206.487 111.161 208.608 116.282 212.384 120.058C216.159 123.833 221.28 125.955 226.62 125.955H287.019C292.359 125.955 297.48 123.833 301.255 120.058C305.031 116.282 307.152 111.161 307.152 105.821V45.4222C307.152 40.0825 305.031 34.9616 301.255 31.1859C297.48 27.4102 292.359 25.2891 287.019 25.2891H226.62ZM246.753 65.5552V85.6883H266.886V65.5552H246.753Z" fill="#C0E0A5"/>
<path d="M186.354 45.4222C186.354 40.0825 184.233 34.9616 180.457 31.1859C176.681 27.4102 171.56 25.2891 166.221 25.2891C160.881 25.2891 155.76 27.4102 151.984 31.1859C148.209 34.9616 146.088 40.0825 146.088 45.4222V65.5552C146.088 70.8949 148.209 76.0158 151.984 79.7915C155.76 83.5672 160.881 85.6883 166.221 85.6883C171.56 85.6883 176.681 83.5672 180.457 79.7915C184.233 76.0158 186.354 70.8949 186.354 65.5552V45.4222ZM166.221 105.821C171.56 105.821 176.681 107.943 180.457 111.718C184.233 115.494 186.354 120.615 186.354 125.955V146.088H226.62C231.96 146.088 237.081 148.209 240.856 151.984C244.632 155.76 246.753 160.881 246.753 166.221C246.753 171.56 244.632 176.681 240.856 180.457C237.081 184.233 231.96 186.354 226.62 186.354H166.221C160.881 186.354 155.76 184.233 151.984 180.457C148.209 176.681 146.088 171.56 146.088 166.221V125.955C146.088 120.615 148.209 115.494 151.984 111.718C155.76 107.943 160.881 105.821 166.221 105.821ZM287.019 146.088C281.68 146.088 276.559 148.209 272.783 151.984C269.007 155.76 266.886 160.881 266.886 166.221C266.886 171.56 269.007 176.681 272.783 180.457C276.559 184.233 281.68 186.354 287.019 186.354C292.359 186.354 297.48 184.233 301.255 180.457C305.031 176.681 307.152 171.56 307.152 166.221C307.152 160.881 305.031 155.76 301.255 151.984C297.48 148.209 292.359 146.088 287.019 146.088ZM146.088 226.62C146.088 221.28 148.209 216.159 151.984 212.384C155.76 208.608 160.881 206.487 166.221 206.487H186.354C191.693 206.487 196.814 208.608 200.59 212.384C204.366 216.159 206.487 221.28 206.487 226.62C206.487 231.96 204.366 237.081 200.59 240.856C196.814 244.632 191.693 246.753 186.354 246.753V287.019C186.354 292.359 184.233 297.48 180.457 301.255C176.681 305.031 171.56 307.152 166.221 307.152C160.881 307.152 155.76 305.031 151.984 301.255C148.209 297.48 146.088 292.359 146.088 287.019V226.62ZM105.821 186.354C111.161 186.354 116.282 184.233 120.058 180.457C123.833 176.681 125.955 171.56 125.955 166.221C125.955 160.881 123.833 155.76 120.058 151.984C116.282 148.209 111.161 146.088 105.821 146.088H45.4222C40.0825 146.088 34.9616 148.209 31.1859 151.984C27.4102 155.76 25.2891 160.881 25.2891 166.221C25.2891 171.56 27.4102 176.681 31.1859 180.457C34.9616 184.233 40.0825 186.354 45.4222 186.354H105.821ZM307.152 226.62C307.152 231.96 305.031 237.081 301.255 240.856C297.48 244.632 292.359 246.753 287.019 246.753H246.753C241.413 246.753 236.292 244.632 232.517 240.856C228.741 237.081 226.62 231.96 226.62 226.62C226.62 221.28 228.741 216.159 232.517 212.384C236.292 208.608 241.413 206.487 246.753 206.487H287.019C292.359 206.487 297.48 208.608 301.255 212.384C305.031 216.159 307.152 221.28 307.152 226.62ZM287.019 307.152C292.359 307.152 297.48 305.031 301.255 301.255C305.031 297.48 307.152 292.359 307.152 287.019C307.152 281.68 305.031 276.559 301.255 272.783C297.48 269.007 292.359 266.886 287.019 266.886H226.62C221.28 266.886 216.159 269.007 212.384 272.783C208.608 276.559 206.487 281.68 206.487 287.019C206.487 292.359 208.608 297.48 212.384 301.255C216.159 305.031 221.28 307.152 226.62 307.152H287.019Z" fill="#C0E0A5"/>
<g filter="url(#filter0_d_2828_164)">
<rect x="78.6514" y="105.877" width="174.9" height="121.501" rx="35" fill="white"/>
<path d="M143.59 189.645C150.047 189.645 153.275 187.023 153.275 181.78C153.275 179.223 151.693 177.057 148.53 175.28C147.1 174.457 145.518 173.677 143.785 172.94C142.095 172.203 140.383 171.402 138.65 170.535C136.917 169.668 135.335 168.737 133.905 167.74C132.518 166.743 131.37 165.487 130.46 163.97C129.593 162.453 129.16 160.742 129.16 158.835C129.16 155.715 130.417 153.072 132.93 150.905C135.487 148.695 138.975 147.59 143.395 147.59C147.815 147.59 152.473 148.933 157.37 151.62C157.37 154.09 157.067 157.188 156.46 160.915C155.507 161.045 154.25 161.11 152.69 161.11L150.74 153.57C150.22 153.31 149.18 153.05 147.62 152.79C146.103 152.53 144.76 152.4 143.59 152.4C141.077 152.4 139.127 152.942 137.74 154.025C136.353 155.065 135.66 156.538 135.66 158.445C135.66 160.308 136.462 161.998 138.065 163.515C139.712 164.988 141.683 166.267 143.98 167.35C146.32 168.39 148.638 169.473 150.935 170.6C153.275 171.727 155.247 173.2 156.85 175.02C158.497 176.797 159.32 178.877 159.32 181.26C159.32 185.593 157.868 188.952 154.965 191.335C152.062 193.675 148.27 194.845 143.59 194.845C141.033 194.845 138.26 194.455 135.27 193.675C132.323 192.852 129.875 191.812 127.925 190.555C128.012 187.652 128.337 184.293 128.9 180.48C129.853 180.35 131.11 180.285 132.67 180.285L134.035 188.085C134.988 188.475 136.418 188.843 138.325 189.19C140.275 189.493 142.03 189.645 143.59 189.645ZM188.586 148.5C194.089 148.5 198.162 149.41 200.806 151.23C203.492 153.007 204.836 156.17 204.836 160.72C204.836 165.27 203.514 168.888 200.871 171.575C198.227 174.218 193.959 175.54 188.066 175.54H182.606L182.411 189.645L187.481 190.1C187.481 191.313 187.112 192.613 186.376 194H171.751L171.556 191.79C173.376 191.097 175.239 190.577 177.146 190.23C176.886 173.33 176.669 160.763 176.496 152.53C175.326 152.313 173.419 151.793 170.776 150.97L171.101 148.5H188.586ZM187.416 171.315C191.142 171.272 193.981 170.34 195.931 168.52C197.881 166.657 198.856 164.208 198.856 161.175C198.856 158.142 197.902 156.04 195.996 154.87C194.089 153.657 191.034 153.05 186.831 153.05C186.051 153.05 184.729 153.072 182.866 153.115C182.866 153.158 182.801 159.247 182.671 171.38L187.416 171.315Z" fill="black"/>
</g>
</g>
<defs>
<filter id="filter0_d_2828_164" x="74.6514" y="105.877" width="182.899" height="129.501" filterUnits="userSpaceOnUse" color-interpolation-filters="sRGB">
<feFlood flood-opacity="0" result="BackgroundImageFix"/>
<feColorMatrix in="SourceAlpha" type="matrix" values="0 0 0 0 0 0 0 0 0 0 0 0 0 0 0 0 0 0 127 0" result="hardAlpha"/>
<feOffset dy="4"/>
<feGaussianBlur stdDeviation="2"/>
<feComposite in2="hardAlpha" operator="out"/>
<feColorMatrix type="matrix" values="0 0 0 0 0 0 0 0 0 0 0 0 0 0 0 0 0 0 0.25 0"/>
<feBlend mode="normal" in2="BackgroundImageFix" result="effect1_dropShadow_2828_164"/>
<feBlend mode="normal" in="SourceGraphic" in2="effect1_dropShadow_2828_164" result="shape"/>
</filter>
<clipPath id="clip0_2828_164">
<rect width="332" height="332" rx="25" fill="white"/>
</clipPath>
</defs>
</svg>
